<svg xmlns="http://www.w3.org/2000/svg" width="487" height="363.632" viewBox="0 0 487 363.632"><g transform="translate(727.5 -573.002)"><g transform="translate(-1132 432.503)"><g transform="translate(889 258.357) rotate(120)"><path d="M53.806,53.806a17.081,17.081,0,0,0,0-24.393L34.291,9.9A17.081,17.081,0,0,0,9.9,9.9a17.081,17.081,0,0,0,0,24.393L29.412,53.806a17.081,17.081,0,0,0,24.393,0Zm0,0" transform="translate(41.816 41.816)" fill="#e9d135"/><path d="M62.447,33.863A17.49,17.49,0,0,0,44.884,16.3H17.563a17.563,17.563,0,1,0,0,35.126H44.884c9.757-.976,17.563-8.782,17.563-17.563Zm0,0" transform="translate(0 142.745)" fill="#e9d135"/><path d="M53.806,30.9a17.081,17.081,0,0,0-24.393,0L9.9,50.412a17.081,17.081,0,0,0,0,24.393,17.081,17.081,0,0,0,24.393,0L53.806,55.291c6.83-5.854,6.83-17.563,0-24.393Zm0,0" transform="translate(41.816 225.721)" fill="#e9d135"/><path d="M33.863,29.8A17.49,17.49,0,0,0,16.3,47.363V74.684a17.563,17.563,0,1,0,35.126,0V47.363C50.451,37.606,42.645,29.8,33.863,29.8Zm0,0" transform="translate(142.745 260.969)" fill="#e9d135"/><path d="M30.241,30.9a17.766,17.766,0,0,1,7.082-4.332c5.683-1.915,3.965,4.264,8.8,9.1l7.049,12.209c4.447,4.446,5.235,8.688,7.723,13.377a60.052,60.052,0,0,0,3.085,5.343c.369.517,2.443.909,1.676,1.676-1.605,1.605,5.067,9.369,2.847,10.342a16.961,16.961,0,0,1-18.747-3.806L30.241,55.291c-5.854-5.854-5.854-17.563,0-24.393Zm0,0" transform="translate(226.378 225.721)" fill="#e9d135"/><path d="M29.8,33.863A17.49,17.49,0,0,1,47.363,16.3H74.684a17.563,17.563,0,1,1,0,35.126H47.363C37.606,50.451,29.8,42.645,29.8,33.863Zm0,0" transform="translate(260.969 142.745)" fill="none"/><path d="M30.9,53.806a17.081,17.081,0,0,1,0-24.393L50.412,9.9a17.081,17.081,0,0,1,24.393,0,17.081,17.081,0,0,1,0,24.393L55.291,53.806a17.081,17.081,0,0,1-24.393,0Zm0,0" transform="translate(225.721 41.816)" fill="none"/><path d="M33.863,62.447A17.49,17.49,0,0,1,16.3,44.884V17.563a17.563,17.563,0,1,1,35.126,0V44.884c-.976,9.757-8.782,17.563-17.563,17.563Zm0,0" transform="translate(142.745)" fill="none"/></g></g><g transform="matrix(0.375, -0.927, 0.927, 0.375, -1026.383, 1235.087)"><path d="M170.3,128.861a83.962,83.962,0,0,0,7.022-19.715c2.285-7.866,2.459-17.95,2.157-25.665a81.177,81.177,0,0,0-3.6-21.208c-1.578-5.12-7.238-3.735-11.876-4.4-8.108-1.173-16.657-.176-16.636-.451-2.462-3.606-6.522-.888-10.5-1.476-5.53-.822-11.5-3.5-16.974-4.272-15.821-2.236-28.259-3.779-28.871-4.058-2.06-.553-18.5-2.273-22.448-3.155S48.528,41.5,46.039,41.293c-2.783-.334-7.619-1.462-10.4-1.462-17.056,0-12.982,2.2-11.682-.7.512-1.165-1.308-.443-3.693-.519-.8-.066-2.292-3.33-4.769.275A89.023,89.023,0,0,0,89.047,178.093c31.166,0,58.838-13.959,76.418-40.808C166.764,135.133,169.522,130.2,170.3,128.861Z" transform="translate(615.679 445.345) rotate(-120)" fill="#d9c01b"/><g transform="translate(889 258.357) rotate(120)"><path d="M53.806,53.806a17.081,17.081,0,0,0,0-24.393L34.291,9.9A17.081,17.081,0,0,0,9.9,9.9a17.081,17.081,0,0,0,0,24.393L29.412,53.806a17.081,17.081,0,0,0,24.393,0Zm0,0" transform="translate(41.816 41.816)" fill="#d9c01b"/><path d="M62.447,33.863A17.49,17.49,0,0,0,44.884,16.3H17.563a17.563,17.563,0,1,0,0,35.126H44.884c9.757-.976,17.563-8.782,17.563-17.563Zm0,0" transform="translate(0 142.745)" fill="#d9c01b"/><path d="M53.806,30.9a17.081,17.081,0,0,0-24.393,0L9.9,50.412a17.081,17.081,0,0,0,0,24.393,17.081,17.081,0,0,0,24.393,0L53.806,55.291c6.83-5.854,6.83-17.563,0-24.393Zm0,0" transform="translate(41.816 225.721)" fill="#d9c01b"/><path d="M33.863,29.8A17.49,17.49,0,0,0,16.3,47.363V74.684a17.563,17.563,0,1,0,35.126,0V47.363C50.451,37.606,42.645,29.8,33.863,29.8Zm0,0" transform="translate(142.745 260.969)" fill="none"/><path d="M30.241,30.9a17.081,17.081,0,0,1,24.393,0L74.149,50.412A17.249,17.249,0,0,1,49.756,74.806L30.241,55.291c-5.854-5.854-5.854-17.563,0-24.393Zm0,0" transform="translate(226.378 225.721)" fill="none"/><path d="M29.8,33.863A17.49,17.49,0,0,1,47.363,16.3H74.684a17.563,17.563,0,1,1,0,35.126H47.363C37.606,50.451,29.8,42.645,29.8,33.863Zm0,0" transform="translate(260.969 142.745)" fill="none"/><path d="M30.9,53.806a17.081,17.081,0,0,1,0-24.393L50.412,9.9a17.081,17.081,0,0,1,24.393,0,17.081,17.081,0,0,1,0,24.393L55.291,53.806a17.081,17.081,0,0,1-24.393,0Zm0,0" transform="translate(225.721 41.816)" fill="#d9c01b"/><path d="M33.863,62.447A17.49,17.49,0,0,1,16.3,44.884V17.563a17.563,17.563,0,1,1,35.126,0V44.884c-.976,9.757-8.782,17.563-17.563,17.563Zm0,0" transform="translate(142.745)" fill="#d9c01b"/></g></g><line x2="483" transform="translate(-725.5 795.5)" fill="none" stroke="#b8a108" stroke-linecap="round" stroke-width="4"/></g></svg>