<svg xmlns="http://www.w3.org/2000/svg" width="487" height="363.632" viewBox="0 0 487 363.632"><g transform="translate(-398.5 -140.499)"><path d="M170.3,128.861a83.962,83.962,0,0,0,7.022-19.715c2.285-7.866,2.459-17.95,2.157-25.665-1-28.139-15.951-44.821-15.906-45.4A88.445,88.445,0,0,0,117.223,4.016c-2.06-.553-3.661-1.125-7.607-2.007A105.041,105.041,0,0,0,97.677.274c-2.783-.334-2.8,3.364-5.585,3.364-1.888,0-1.224,1.907-1.968,3.409C89.134,9,87.685,11.433,86.5,13.327c-3.685,5.86-5.637,11.9-10.877,18.839-8.217,10.874-11.846,21.1-19.993,34.628-2.867,4.759-5.9,11-9.945,17.225-2.356,3.624-6.63,6.747-6.63,11.483,0,4.831-4.418,7.777-7.044,12.2-4.388,7.4-8.782,15.634-12.741,22.069-2.527,4.1-5.2,7.611-1.788,12.228a88.865,88.865,0,0,0,71.565,36.094c31.166,0,58.838-13.959,76.418-40.808C166.764,135.133,169.522,130.2,170.3,128.861Z" transform="translate(615.679 445.345) rotate(-120)" fill="#e9d135"/><g transform="translate(889 258.357) rotate(120)"><path d="M53.806,53.806a17.081,17.081,0,0,0,0-24.393L34.291,9.9A17.081,17.081,0,0,0,9.9,9.9a17.081,17.081,0,0,0,0,24.393L29.412,53.806a17.081,17.081,0,0,0,24.393,0Zm0,0" transform="translate(41.816 41.816)" fill="#e9d135"/><path d="M62.447,33.863A17.49,17.49,0,0,0,44.884,16.3H17.563a17.563,17.563,0,1,0,0,35.126H44.884c9.757-.976,17.563-8.782,17.563-17.563Zm0,0" transform="translate(0 142.745)" fill="#e9d135"/><path d="M53.806,30.9a17.081,17.081,0,0,0-24.393,0L9.9,50.412a17.081,17.081,0,0,0,0,24.393,17.081,17.081,0,0,0,24.393,0L53.806,55.291c6.83-5.854,6.83-17.563,0-24.393Zm0,0" transform="translate(41.816 225.721)" fill="#e9d135"/><path d="M33.863,29.8A17.49,17.49,0,0,0,16.3,47.363V74.684a17.563,17.563,0,1,0,35.126,0V47.363C50.451,37.606,42.645,29.8,33.863,29.8Zm0,0" transform="translate(142.745 260.969)" fill="#e9d135"/><path d="M30.241,30.9a17.791,17.791,0,0,1,6.879-4.267c5.733-2.013,6.458,7.96,11.348,12.851L61.034,61.245c4.1,4.1,2.723,5.082,3.923,6.795a12.977,12.977,0,0,0,1.532,2.654c.381.394,2.143.7,1.042,1.8-1.359,1.359,3.745,4.755,1.865,5.709a16.962,16.962,0,0,1-19.641-3.4L30.241,55.291c-5.854-5.854-5.854-17.563,0-24.393Zm0,0" transform="translate(226.378 225.721)" fill="#e9d135"/></g><g transform="translate(1132 -432.503)"><g transform="translate(-1132 432.503)"><path d="M170.3,128.861a83.962,83.962,0,0,0,7.022-19.715c2.285-7.866,2.459-17.95,2.157-25.665-1-28.139-15.951-44.821-15.906-45.4A88.445,88.445,0,0,0,117.223,4.016c-2.06-.553-3.661-1.125-7.607-2.007A105.041,105.041,0,0,0,97.677.274,74.533,74.533,0,0,0,89.047,0a89.047,89.047,0,0,0,0,178.093c31.166,0,58.838-13.959,76.418-40.808C166.764,135.133,169.522,130.2,170.3,128.861Z" transform="translate(615.679 445.345) rotate(-120)" fill="none"/><g transform="translate(889 258.357) rotate(120)"><path d="M53.806,53.806a17.081,17.081,0,0,0,0-24.393L34.291,9.9A17.081,17.081,0,0,0,9.9,9.9a17.081,17.081,0,0,0,0,24.393L29.412,53.806a17.081,17.081,0,0,0,24.393,0Zm0,0" transform="translate(41.816 41.816)" fill="none"/><path d="M62.447,33.863A17.49,17.49,0,0,0,44.884,16.3H17.563a17.563,17.563,0,1,0,0,35.126H44.884c9.757-.976,17.563-8.782,17.563-17.563Zm0,0" transform="translate(0 142.745)" fill="none"/><path d="M53.806,30.9a17.081,17.081,0,0,0-24.393,0L9.9,50.412a17.081,17.081,0,0,0,0,24.393,17.081,17.081,0,0,0,24.393,0L53.806,55.291c6.83-5.854,6.83-17.563,0-24.393Zm0,0" transform="translate(41.816 225.721)" fill="none"/><path d="M33.863,29.8A17.49,17.49,0,0,0,16.3,47.363V74.684a17.563,17.563,0,1,0,35.126,0V47.363C50.451,37.606,42.645,29.8,33.863,29.8Zm0,0" transform="translate(142.745 260.969)" fill="none"/><path d="M30.241,30.9a17.081,17.081,0,0,1,24.393,0L74.149,50.412A17.249,17.249,0,0,1,49.756,74.806L30.241,55.291c-5.854-5.854-5.854-17.563,0-24.393Zm0,0" transform="translate(226.378 225.721)" fill="none"/><path d="M29.8,33.863A17.49,17.49,0,0,1,47.363,16.3H74.684a17.563,17.563,0,1,1,0,35.126H47.363C37.606,50.451,29.8,42.645,29.8,33.863Zm0,0" transform="translate(260.969 142.745)" fill="none"/><path d="M30.9,53.806a17.081,17.081,0,0,1,0-24.393L50.412,9.9a17.081,17.081,0,0,1,24.393,0,17.081,17.081,0,0,1,0,24.393L55.291,53.806a17.081,17.081,0,0,1-24.393,0Zm0,0" transform="translate(225.721 41.816)" fill="none"/><path d="M33.863,62.447A17.49,17.49,0,0,1,16.3,44.884V17.563a17.563,17.563,0,1,1,35.126,0V44.884c-.976,9.757-8.782,17.563-17.563,17.563Zm0,0" transform="translate(142.745)" fill="none"/></g></g><g transform="matrix(0.375, -0.927, 0.927, 0.375, -1026.383, 1235.087)"><path d="M170.3,128.861a83.962,83.962,0,0,0,7.022-19.715c2.285-7.866,2.459-17.95,2.157-25.665-1-28.139-15.951-44.821-15.906-45.4A88.445,88.445,0,0,0,117.223,4.016c-2.06-.553-3.661-1.125-7.607-2.007A105.041,105.041,0,0,0,97.677.274,74.533,74.533,0,0,0,89.047,0a89.047,89.047,0,0,0,0,178.093c31.166,0,58.838-13.959,76.418-40.808C166.764,135.133,169.522,130.2,170.3,128.861Z" transform="translate(615.679 445.345) rotate(-120)" fill="none"/><g transform="translate(889 258.357) rotate(120)"><path d="M53.806,53.806a17.081,17.081,0,0,0,0-24.393L34.291,9.9A17.081,17.081,0,0,0,9.9,9.9a17.081,17.081,0,0,0,0,24.393L29.412,53.806a17.081,17.081,0,0,0,24.393,0Zm0,0" transform="translate(41.816 41.816)" fill="none"/><path d="M62.447,33.863A17.49,17.49,0,0,0,44.884,16.3H17.563a17.563,17.563,0,1,0,0,35.126H44.884c9.757-.976,17.563-8.782,17.563-17.563Zm0,0" transform="translate(0 142.745)" fill="none"/><path d="M53.806,30.9a17.081,17.081,0,0,0-24.393,0L9.9,50.412a17.081,17.081,0,0,0,0,24.393,17.081,17.081,0,0,0,24.393,0L53.806,55.291c6.83-5.854,6.83-17.563,0-24.393Zm0,0" transform="translate(41.816 225.721)" fill="none"/><path d="M33.863,29.8A17.49,17.49,0,0,0,16.3,47.363V74.684a17.563,17.563,0,1,0,35.126,0V47.363C50.451,37.606,42.645,29.8,33.863,29.8Zm0,0" transform="translate(142.745 260.969)" fill="none"/><path d="M30.241,30.9a17.081,17.081,0,0,1,24.393,0L74.149,50.412A17.249,17.249,0,0,1,49.756,74.806L30.241,55.291c-5.854-5.854-5.854-17.563,0-24.393Zm0,0" transform="translate(226.378 225.721)" fill="none"/><path d="M29.8,33.863A17.49,17.49,0,0,1,47.363,16.3H74.684a17.563,17.563,0,1,1,0,35.126H47.363C37.606,50.451,29.8,42.645,29.8,33.863Zm0,0" transform="translate(260.969 142.745)" fill="none"/><path d="M30.9,53.806a17.081,17.081,0,0,1,0-24.393L50.412,9.9a17.081,17.081,0,0,1,24.393,0,17.081,17.081,0,0,1,0,24.393L55.291,53.806a17.081,17.081,0,0,1-24.393,0Zm0,0" transform="translate(225.721 41.816)" fill="none"/><path d="M33.863,62.447A17.49,17.49,0,0,1,16.3,44.884V17.563a17.563,17.563,0,1,1,35.126,0V44.884c-.976,9.757-8.782,17.563-17.563,17.563Zm0,0" transform="translate(142.745)" fill="none"/></g></g></g><line x2="483" transform="translate(400.5 362.997)" fill="none" stroke="#b8a108" stroke-linecap="round" stroke-width="4"/></g></svg>