<svg xmlns="http://www.w3.org/2000/svg" width="363.632" height="363.632" viewBox="0 0 363.632 363.632"><g transform="translate(-466.017 -140.499)"><path d="M170.3,128.861a83.962,83.962,0,0,0,7.022-19.715c2.285-7.866,2.459-17.95,2.157-25.665-1-28.139-15.951-44.821-15.906-45.4A88.445,88.445,0,0,0,117.223,4.016c-2.06-.553-3.661-1.125-7.607-2.007A105.041,105.041,0,0,0,97.677.274,74.533,74.533,0,0,0,89.047,0a89.047,89.047,0,0,0,0,178.093c31.166,0,58.838-13.959,76.418-40.808C166.764,135.133,169.522,130.2,170.3,128.861Z" transform="translate(615.679 445.345) rotate(-120)" fill="#e9d135"/><g transform="translate(889 258.357) rotate(120)"><path d="M53.806,53.806a17.081,17.081,0,0,0,0-24.393L34.291,9.9A17.081,17.081,0,0,0,9.9,9.9a17.081,17.081,0,0,0,0,24.393L29.412,53.806a17.081,17.081,0,0,0,24.393,0Zm0,0" transform="translate(41.816 41.816)" fill="#e9d135"/><path d="M62.447,33.863A17.49,17.49,0,0,0,44.884,16.3H17.563a17.563,17.563,0,1,0,0,35.126H44.884c9.757-.976,17.563-8.782,17.563-17.563Zm0,0" transform="translate(0 142.745)" fill="#e9d135"/><path d="M53.806,30.9a17.081,17.081,0,0,0-24.393,0L9.9,50.412a17.081,17.081,0,0,0,0,24.393,17.081,17.081,0,0,0,24.393,0L53.806,55.291c6.83-5.854,6.83-17.563,0-24.393Zm0,0" transform="translate(41.816 225.721)" fill="#e9d135"/><path d="M33.863,29.8A17.49,17.49,0,0,0,16.3,47.363V74.684a17.563,17.563,0,1,0,35.126,0V47.363C50.451,37.606,42.645,29.8,33.863,29.8Zm0,0" transform="translate(142.745 260.969)" fill="#e9d135"/><path d="M30.241,30.9a17.081,17.081,0,0,1,24.393,0L74.149,50.412A17.249,17.249,0,0,1,49.756,74.806L30.241,55.291c-5.854-5.854-5.854-17.563,0-24.393Zm0,0" transform="translate(226.378 225.721)" fill="#e9d135"/><path d="M29.8,33.863A17.49,17.49,0,0,1,47.363,16.3H74.684a17.563,17.563,0,1,1,0,35.126H47.363C37.606,50.451,29.8,42.645,29.8,33.863Zm0,0" transform="translate(260.969 142.745)" fill="#e9d135"/><path d="M30.9,53.806a17.081,17.081,0,0,1,0-24.393L50.412,9.9a17.081,17.081,0,0,1,24.393,0,17.081,17.081,0,0,1,0,24.393L55.291,53.806a17.081,17.081,0,0,1-24.393,0Zm0,0" transform="translate(225.721 41.816)" fill="#e9d135"/><path d="M33.863,62.447A17.49,17.49,0,0,1,16.3,44.884V17.563a17.563,17.563,0,1,1,35.126,0V44.884c-.976,9.757-8.782,17.563-17.563,17.563Zm0,0" transform="translate(142.745)" fill="#e9d135"/></g><g transform="translate(1132 -432.503)"><g transform="translate(-1132 432.503)"><path d="M170.3,128.861a83.962,83.962,0,0,0,7.022-19.715c2.285-7.866,2.459-17.95,2.157-25.665-1-28.139-15.951-44.821-15.906-45.4A88.445,88.445,0,0,0,117.223,4.016c-2.06-.553-3.661-1.125-7.607-2.007A105.041,105.041,0,0,0,97.677.274,74.533,74.533,0,0,0,89.047,0a89.047,89.047,0,0,0,0,178.093c31.166,0,58.838-13.959,76.418-40.808C166.764,135.133,169.522,130.2,170.3,128.861Z" transform="translate(615.679 445.345) rotate(-120)" fill="none"/><g transform="translate(889 258.357) rotate(120)"><path d="M53.806,53.806a17.081,17.081,0,0,0,0-24.393L34.291,9.9A17.081,17.081,0,0,0,9.9,9.9a17.081,17.081,0,0,0,0,24.393L29.412,53.806a17.081,17.081,0,0,0,24.393,0Zm0,0" transform="translate(41.816 41.816)" fill="none"/><path d="M62.447,33.863A17.49,17.49,0,0,0,44.884,16.3H17.563a17.563,17.563,0,1,0,0,35.126H44.884c9.757-.976,17.563-8.782,17.563-17.563Zm0,0" transform="translate(0 142.745)" fill="none"/><path d="M53.806,30.9a17.081,17.081,0,0,0-24.393,0L9.9,50.412a17.081,17.081,0,0,0,0,24.393,17.081,17.081,0,0,0,24.393,0L53.806,55.291c6.83-5.854,6.83-17.563,0-24.393Zm0,0" transform="translate(41.816 225.721)" fill="none"/><path d="M33.863,29.8A17.49,17.49,0,0,0,16.3,47.363V74.684a17.563,17.563,0,1,0,35.126,0V47.363C50.451,37.606,42.645,29.8,33.863,29.8Zm0,0" transform="translate(142.745 260.969)" fill="none"/><path d="M30.241,30.9a17.081,17.081,0,0,1,24.393,0L74.149,50.412A17.249,17.249,0,0,1,49.756,74.806L30.241,55.291c-5.854-5.854-5.854-17.563,0-24.393Zm0,0" transform="translate(226.378 225.721)" fill="none"/><path d="M29.8,33.863A17.49,17.49,0,0,1,47.363,16.3H74.684a17.563,17.563,0,1,1,0,35.126H47.363C37.606,50.451,29.8,42.645,29.8,33.863Zm0,0" transform="translate(260.969 142.745)" fill="none"/><path d="M30.9,53.806a17.081,17.081,0,0,1,0-24.393L50.412,9.9a17.081,17.081,0,0,1,24.393,0,17.081,17.081,0,0,1,0,24.393L55.291,53.806a17.081,17.081,0,0,1-24.393,0Zm0,0" transform="translate(225.721 41.816)" fill="none"/><path d="M33.863,62.447A17.49,17.49,0,0,1,16.3,44.884V17.563a17.563,17.563,0,1,1,35.126,0V44.884c-.976,9.757-8.782,17.563-17.563,17.563Zm0,0" transform="translate(142.745)" fill="none"/></g></g><g transform="matrix(0.375, -0.927, 0.927, 0.375, -1026.383, 1235.087)"><path d="M170.3,128.861a83.962,83.962,0,0,0,7.022-19.715c2.285-7.866,2.459-17.95,2.157-25.665-1-28.139-15.951-44.821-15.906-45.4A88.445,88.445,0,0,0,117.223,4.016c-2.06-.553-3.661-1.125-7.607-2.007A105.041,105.041,0,0,0,97.677.274,74.533,74.533,0,0,0,89.047,0a89.047,89.047,0,0,0,0,178.093c31.166,0,58.838-13.959,76.418-40.808C166.764,135.133,169.522,130.2,170.3,128.861Z" transform="translate(615.679 445.345) rotate(-120)" fill="none"/><g transform="translate(889 258.357) rotate(120)"><path d="M53.806,53.806a17.081,17.081,0,0,0,0-24.393L34.291,9.9A17.081,17.081,0,0,0,9.9,9.9a17.081,17.081,0,0,0,0,24.393L29.412,53.806a17.081,17.081,0,0,0,24.393,0Zm0,0" transform="translate(41.816 41.816)" fill="none"/><path d="M62.447,33.863A17.49,17.49,0,0,0,44.884,16.3H17.563a17.563,17.563,0,1,0,0,35.126H44.884c9.757-.976,17.563-8.782,17.563-17.563Zm0,0" transform="translate(0 142.745)" fill="none"/><path d="M53.806,30.9a17.081,17.081,0,0,0-24.393,0L9.9,50.412a17.081,17.081,0,0,0,0,24.393,17.081,17.081,0,0,0,24.393,0L53.806,55.291c6.83-5.854,6.83-17.563,0-24.393Zm0,0" transform="translate(41.816 225.721)" fill="none"/><path d="M33.863,29.8A17.49,17.49,0,0,0,16.3,47.363V74.684a17.563,17.563,0,1,0,35.126,0V47.363C50.451,37.606,42.645,29.8,33.863,29.8Zm0,0" transform="translate(142.745 260.969)" fill="none"/><path d="M30.241,30.9a17.081,17.081,0,0,1,24.393,0L74.149,50.412A17.249,17.249,0,0,1,49.756,74.806L30.241,55.291c-5.854-5.854-5.854-17.563,0-24.393Zm0,0" transform="translate(226.378 225.721)" fill="none"/><path d="M29.8,33.863A17.49,17.49,0,0,1,47.363,16.3H74.684a17.563,17.563,0,1,1,0,35.126H47.363C37.606,50.451,29.8,42.645,29.8,33.863Zm0,0" transform="translate(260.969 142.745)" fill="none"/><path d="M30.9,53.806a17.081,17.081,0,0,1,0-24.393L50.412,9.9a17.081,17.081,0,0,1,24.393,0,17.081,17.081,0,0,1,0,24.393L55.291,53.806a17.081,17.081,0,0,1-24.393,0Zm0,0" transform="translate(225.721 41.816)" fill="none"/><path d="M33.863,62.447A17.49,17.49,0,0,1,16.3,44.884V17.563a17.563,17.563,0,1,1,35.126,0V44.884c-.976,9.757-8.782,17.563-17.563,17.563Zm0,0" transform="translate(142.745)" fill="none"/></g></g></g></g></svg>